<svg xmlns="http://www.w3.org/2000/svg" xml:space="preserve" width="800" height="800" fill="#FFF" viewBox="0 0 128 128"><path d="M91 45h-8v28H73v46H61V73H51V45h-8v36h10v46h28V81h10zM53 15c0 7.7 6.3 14 14 14s14-6.3 14-14S74.7 1 67 1 53 7.3 53 15m20 0c0 3.3-2.7 6-6 6s-6-2.7-6-6 2.7-6 6-6 6 2.7 6 6M19 25c0 7.7 6.3 14 14 14s14-6.3 14-14-6.3-14-14-14-14 6.3-14 14m20 0c0 3.3-2.7 6-6 6s-6-2.7-6-6 2.7-6 6-6 6 2.7 6 6M113 83h-10v36H87v8h24V91h10V51h-8zM87 25c0 7.7 6.3 14 14 14s14-6.3 14-14-6.3-14-14-14-14 6.3-14 14m14-6c3.3 0 6 2.7 6 6s-2.7 6-6 6-6-2.7-6-6 2.7-6 6-6M31 83H21V51h-8v40h10v36h24v-8H31z"/></svg>