<svg xmlns="http://www.w3.org/2000/svg" xml:space="preserve" fill="#FFF" viewBox="0 0 32 32"><path d="M31 31.36H1v-.72h.64v-2.555l-.962-1.924a.36.36 0 0 1-.015-.287l.942-2.514H1v-.72h.875l1.765-4.705V13h.72v5a.4.4 0 0 1-.023.126L2.645 22.64h8.711l-1.692-4.514A.3.3 0 0 1 9.64 18v-5h.72v4.935l1.765 4.705H13v.721h-.605l.942 2.514a.36.36 0 0 1-.015.287l-.962 1.924v2.555h3.28V30a4.365 4.365 0 0 1 2.906-4.11l-.889-2.779A.4.4 0 0 1 17.64 23v-7.545c0-3.377.843-4.898 2.201-6.256l2.927-2.474a.36.36 0 0 1 .384-.052.36.36 0 0 1 .208.327v2.64H25c.084 0 .166.029.23.083l6 5a.36.36 0 0 1 .092.438l-1 2a.36.36 0 0 1-.382.194l-5.252-.875 3.624 6.341c.05.088.062.192.03.288l-.889 2.779a4.37 4.37 0 0 1 2.906 4.11v.641H31zm-14.64-.72h13.28v-.641A3.643 3.643 0 0 0 26 26.36h-6a3.643 3.643 0 0 0-3.64 3.639zm-14 0h9.28v-2.28H2.36zm4.581-3h4.836l.831-1.66-.982-2.619H2.375l-.982 2.619.831 1.66zm13.059-2h6q.387 0 .757.066l.852-2.665-3.921-6.862a.36.36 0 0 1 .018-.384.36.36 0 0 1 .354-.149l5.737.956.754-1.507-5.681-4.735H23a.36.36 0 0 1-.36-.36V7.775l-2.312 1.953c-1.097 1.098-1.825 2.345-1.949 4.912H20v.72h-1.64v2.28H20v.721h-1.64v2.279H20v.721h-1.64v1.583l.883 2.763q.37-.067.757-.067m-9-14.28H3v-.72h8zM10.36 9h-.72V7a.4.4 0 0 1 .038-.161L10.598 5l-.82-1.64H4.223L3.402 5l.919 1.839q.039.076.039.161v2h-.72V7.085l-.962-1.924a.36.36 0 0 1 0-.322l1-2A.36.36 0 0 1 4 2.64h.64V1A.36.36 0 0 1 5 .64h4a.36.36 0 0 1 .36.36v1.64H10a.36.36 0 0 1 .322.199l1 2a.36.36 0 0 1 0 .322l-.962 1.924zm-5-6.36h3.28V1.36H5.36zM9 5.36H5v-.72h4z"/><path d="M0 0h32v32H0z" style="fill:none"/></svg>